<svg id="Layer_1" data-name="Layer 1" xmlns="http://www.w3.org/2000/svg" viewBox="0 0 1036.13 320.41"><defs><style>.cls-1{fill:none;}.cls-2{fill:#fff;}</style></defs><title>RONG LOGO-White</title><path class="cls-1" d="M955.8,567.5a4.82,4.82,0,1,0,4.86,4.83A4.8,4.8,0,0,0,955.8,567.5Z" transform="translate(-78.49 -357.59)"/><path class="cls-1" d="M936.09,541.9c-2.68-4.71-5.49-9.35-8.28-14-3.06-5.09-6.08-10.2-8.89-15.43-.07-.12-.14-.24-.24-.41l-.36.32a16,16,0,0,0-4.12,6.88,20.48,20.48,0,0,0-.55,9.26,23.6,23.6,0,0,0,3.08,8.52,19.66,19.66,0,0,0,7.38,7.28,23.41,23.41,0,0,0,6.1,2.34,15.57,15.57,0,0,0,5.56.35,14.2,14.2,0,0,0,2.72-.75c-.09-.18-.15-.35-.23-.5C937.52,544.47,936.81,543.18,936.09,541.9Z" transform="translate(-78.49 -357.59)"/><path class="cls-1" d="M400.42,472.59c-26.85,0-44.29,20.48-44.29,46.23S373.57,565,400.42,565s44.29-20.48,44.29-46.23S427.27,472.59,400.42,472.59Z" transform="translate(-78.49 -357.59)"/><path class="cls-1" d="M1017.88,528.15c-.08-1.91-.19-3.81-.42-5.7-.18-1.44-.39-2.87-.68-4.29s-.67-3-1-4.53a63.53,63.53,0,0,0-3.12-9.93,67.86,67.86,0,0,0-3.71-7.59c-2.16-3.86-4.42-7.67-6.64-11.51l-13.6-23.51q-4.27-7.37-8.53-14.75a34,34,0,0,0-2-3.09,2.12,2.12,0,0,0-.5-.5l-1.36-1a1.8,1.8,0,0,0-.7-.31q-1.31-.29-2.61-.61a1.4,1.4,0,0,0-.7,0c-.83.21-1.66.4-2.49.58a3.38,3.38,0,0,0-1,.39L963.22,445l-14.14,8.15-12.24,7-11.3,6.52-8.55,5c-1.6.93-3.13,2-4.64,3-1.68,1.2-3.36,2.4-4.95,3.73a61.22,61.22,0,0,0-7.6,7.55c-1.33,1.58-2.54,3.25-3.76,4.93a62.71,62.71,0,0,0-4.64,7.42,59.84,59.84,0,0,0-3.34,7.57,66.88,66.88,0,0,0-2.17,7.43c-.59,2.51-1.18,5-1.55,7.58a61.62,61.62,0,0,0-.63,8.19,50.24,50.24,0,0,0,.3,6.19c.16,1.4.32,2.8.56,4.19.29,1.64.66,3.27,1,4.89a70.33,70.33,0,0,0,2.24,8,60.62,60.62,0,0,0,4.05,9.07,76.07,76.07,0,0,0,7.49,11,57.64,57.64,0,0,0,8.82,8.76c1.72,1.38,3.51,2.66,5.33,3.92a59.68,59.68,0,0,0,12.73,6.69,67.25,67.25,0,0,0,8.38,2.52,79,79,0,0,0,8.82,1.72c1.58.19,3.16.35,4.75.41a62.48,62.48,0,0,0,6.79-.08c1.9-.13,3.8-.34,5.68-.66a95.41,95.41,0,0,0,10-2.29,59.15,59.15,0,0,0,16.09-7.34,82.18,82.18,0,0,0,7.18-5.22,61.12,61.12,0,0,0,5.79-5.4,73.82,73.82,0,0,0,7.15-9.14,56.68,56.68,0,0,0,3.64-6.15,58.06,58.06,0,0,0,4.19-10.49q1.33-4.61,2.21-9.32a55.85,55.85,0,0,0,.87-7c.09-1.45.11-2.9.16-4.35h0C1017.88,528.7,1017.89,528.42,1017.88,528.15Zm-7.51,3.6a59.28,59.28,0,0,1-1.71,12.07,58.44,58.44,0,0,1-10.78,22.24,59.25,59.25,0,0,1-29.22,20.26,57.34,57.34,0,0,1-9.4,2.13c-1.93.27-3.87.44-5.81.54a56.87,56.87,0,0,1-6.25-.06,59.55,59.55,0,0,1-55.92-56.35c-.08-1.53-.11-3.06-.07-4.59a59.66,59.66,0,0,1,13.66-36.41,58.28,58.28,0,0,1,15.43-13.16c5.26-3.09,10.54-6.12,15.83-9.17L972,448.61l.62-.34a1.59,1.59,0,0,1,.39.55l6,10.42,23.1,39.91a85.92,85.92,0,0,1,4.07,8.41,61.65,61.65,0,0,1,2.76,8.86c.44,1.94.78,3.89,1,5.86A58,58,0,0,1,1010.37,531.75Z" transform="translate(-78.49 -357.59)"/><path class="cls-1" d="M987.64,530.53a2.31,2.31,0,0,0-.67.31c-2,1.09-3.93,2.16-5.87,3.3q-7.14,4.19-14.25,8.44c-4.27,2.53-8.56,5-12.93,7.37l-.5.3a12,12,0,0,0,1.56,1.49,17.27,17.27,0,0,0,9.38,3.72,21.57,21.57,0,0,0,5.76-.22,23.62,23.62,0,0,0,8.85-3.35,19.4,19.4,0,0,0,6.44-6.5,23.08,23.08,0,0,0,2.72-7,15.13,15.13,0,0,0,.23-5.44A13.89,13.89,0,0,0,987.64,530.53Z" transform="translate(-78.49 -357.59)"/><path class="cls-2" d="M758.34,550.09h34.32v6.64c-5.81,4.43-18.27,8.3-28.79,8.3C737,565,719,544.56,719,518.81s18-46.23,44.84-46.23c16.61,0,28.79,11.63,34,23L845,471.48c-11.63-23.8-37.09-48.16-81.1-48.16-41.57,0-77.46,20-93.15,54.66V426.36H614.81v87.47l-64.22-87.47H493v52.16c-15.4-34-50.43-55.2-92.6-55.2-39.09,0-72.06,18.22-88.94,48-6.92-25.8-28.87-44.91-64.06-44.91H148.89V611H204.8V552.86H225L250.47,611h63.66l-33.49-65.32A59.71,59.71,0,0,0,300,530.45c5.59,50.33,47.34,83.86,100.37,83.86,42.17,0,77.2-21.21,92.6-55.2V611h55.91V517.43L617,611h53.7V559.53c15.69,34.58,51.59,54.78,93.15,54.78,36.26,0,63.94-14.67,84.42-37.37V501.37h-90ZM238.85,504.14h-34V475.08h34c9.41,0,18.27,4.43,18.27,14.39C257.12,499.71,248.26,504.14,238.85,504.14ZM400.42,565c-26.85,0-44.29-20.48-44.29-46.23s17.44-46.23,44.29-46.23,44.29,20.48,44.29,46.23S427.27,565,400.42,565Z" transform="translate(-78.49 -357.59)"/><path class="cls-2" d="M952.63,423.32A95.69,95.69,0,1,0,1048.27,519,95.69,95.69,0,0,0,952.63,423.32Zm65.14,110a55.85,55.85,0,0,1-.87,7q-.9,4.71-2.21,9.32a58.06,58.06,0,0,1-4.19,10.49,56.68,56.68,0,0,1-3.64,6.15,73.82,73.82,0,0,1-7.15,9.14,61.12,61.12,0,0,1-5.79,5.4,82.18,82.18,0,0,1-7.18,5.22,59.15,59.15,0,0,1-16.09,7.34,95.41,95.41,0,0,1-10,2.29c-1.88.32-3.77.53-5.68.66a62.48,62.48,0,0,1-6.79.08c-1.59-.06-3.17-.22-4.75-.41a79,79,0,0,1-8.82-1.72,67.25,67.25,0,0,1-8.38-2.52,59.68,59.68,0,0,1-12.73-6.69c-1.81-1.25-3.61-2.53-5.33-3.92a57.64,57.64,0,0,1-8.82-8.76,76.07,76.07,0,0,1-7.49-11,60.62,60.62,0,0,1-4.05-9.07,70.33,70.33,0,0,1-2.24-8c-.37-1.63-.73-3.25-1-4.89-.24-1.39-.4-2.79-.56-4.19a50.24,50.24,0,0,1-.3-6.19,61.62,61.62,0,0,1,.63-8.19c.37-2.56,1-5.07,1.55-7.58a66.88,66.88,0,0,1,2.17-7.43,59.84,59.84,0,0,1,3.34-7.57,62.71,62.71,0,0,1,4.64-7.42c1.21-1.67,2.42-3.35,3.76-4.93a61.22,61.22,0,0,1,7.6-7.55c1.59-1.33,3.27-2.52,4.95-3.73,1.5-1.08,3-2.1,4.64-3l8.55-5,11.3-6.52,12.24-7L963.22,445l5.57-3.21a3.38,3.38,0,0,1,1-.39c.83-.18,1.67-.38,2.49-.58a1.4,1.4,0,0,1,.7,0q1.3.32,2.61.61a1.8,1.8,0,0,1,.7.31l1.36,1a2.12,2.12,0,0,1,.5.5,34,34,0,0,1,2,3.09q4.25,7.38,8.53,14.75l13.6,23.51c2.22,3.83,4.48,7.64,6.64,11.51a67.86,67.86,0,0,1,3.71,7.59,63.53,63.53,0,0,1,3.12,9.93c.34,1.51.69,3,1,4.53s.5,2.85.68,4.29c.24,1.89.34,3.8.42,5.7,0,.28,0,.56,0,.83h0C1017.88,530.43,1017.86,531.88,1017.77,533.33Z" transform="translate(-78.49 -357.59)"/><path class="cls-2" d="M1008.93,516.43a61.65,61.65,0,0,0-2.76-8.86,85.92,85.92,0,0,0-4.07-8.41L979,459.24l-6-10.42a1.59,1.59,0,0,0-.39-.55l-.62.34-35.83,20.64c-5.28,3-10.57,6.08-15.83,9.17a58.28,58.28,0,0,0-15.43,13.16A59.66,59.66,0,0,0,891.22,528c0,1.53,0,3.06.07,4.59a58.73,58.73,0,0,0,.78,7,59.82,59.82,0,0,0,55.14,49.37,56.87,56.87,0,0,0,6.25.06c1.95-.09,3.88-.26,5.81-.54a57.34,57.34,0,0,0,9.4-2.13,59.25,59.25,0,0,0,29.22-20.26,58.44,58.44,0,0,0,10.78-22.24,59.28,59.28,0,0,0,1.71-12.07,58,58,0,0,0-.42-9.46C1009.71,520.32,1009.37,518.36,1008.93,516.43ZM935.75,547a15.57,15.57,0,0,1-5.56-.35,23.41,23.41,0,0,1-6.1-2.34,19.66,19.66,0,0,1-7.38-7.28,23.6,23.6,0,0,1-3.08-8.52,20.48,20.48,0,0,1,.55-9.26,16,16,0,0,1,4.12-6.88l.36-.32c.1.17.17.29.24.41,2.81,5.23,5.84,10.34,8.89,15.43,2.79,4.65,5.6,9.28,8.28,14,.73,1.28,1.44,2.56,2.15,3.85.08.15.15.31.23.5A14.2,14.2,0,0,1,935.75,547Zm20.1,30.14a4.82,4.82,0,1,1,4.81-4.81A4.8,4.8,0,0,1,955.85,577.14Zm32.28-38.71a23.08,23.08,0,0,1-2.72,7,19.4,19.4,0,0,1-6.44,6.5,23.62,23.62,0,0,1-8.85,3.35,21.57,21.57,0,0,1-5.76.22,17.27,17.27,0,0,1-9.38-3.72,12,12,0,0,1-1.56-1.49l.5-.3c4.38-2.34,8.67-4.84,12.93-7.37q7.12-4.23,14.25-8.44c1.93-1.14,3.91-2.2,5.87-3.3a2.31,2.31,0,0,1,.67-.31,13.89,13.89,0,0,1,.72,2.46A15.13,15.13,0,0,1,988.13,538.43Z" transform="translate(-78.49 -357.59)"/><path class="cls-2" d="M975.06,678H78.49V357.59H1114.62V538.43C1114.62,615.39,1052,678,975.06,678ZM121.32,635.16H975.06a96.84,96.84,0,0,0,96.73-96.73v-138H121.32Z" transform="translate(-78.49 -357.59)"/></svg>