<svg id="Layer_1" data-name="Layer 1" xmlns="http://www.w3.org/2000/svg" viewBox="0 0 100 100"><defs><style>.cls-1{fill:#fff;}</style></defs><title>joc-social-icons</title><path class="cls-1" d="M49.87,100a49.94,49.94,0,1,1,50-49.71A49.92,49.92,0,0,1,49.87,100Zm1-59.87a5.4,5.4,0,0,1-1.65,0,37.85,37.85,0,0,1-9.7-2.31A37.06,37.06,0,0,1,25,27.63a2.63,2.63,0,0,0-.88-.85c-.13.22-.25.38-.34.55a13.07,13.07,0,0,0,3.55,16.08c.16.13.48.19.34.53a11.48,11.48,0,0,1-4.35-1c-.28-.12-.54-.4-.9-.22a.92.92,0,0,0-.08.23,3.37,3.37,0,0,0,0,.49,13,13,0,0,0,9.27,11.66c.18.06.42,0,.42.38a12.92,12.92,0,0,1-5.08.19c.11.37.17.65.28.9a12.89,12.89,0,0,0,6.49,6.83,13.54,13.54,0,0,0,4.45,1.21c.18,0,.42-.06.46.31a24.91,24.91,0,0,1-6,3.4A26.7,26.7,0,0,1,20,70.06c.36.28.5.41.66.51a36.52,36.52,0,0,0,17.21,5.25,38.86,38.86,0,0,0,9.47-.68,35,35,0,0,0,15.93-7.52A38.24,38.24,0,0,0,76.71,38.29c0-.4,0-.8,0-1.12,3.85-3.31,5.39-5,6.16-6.59-.29.09-.52.14-.73.23a28,28,0,0,1-5.41,1.47c-.16,0-.37.15-.54-.14a13.38,13.38,0,0,0,3.11-2.9,10.19,10.19,0,0,0,2-3.71c-.12,0-.16-.06-.18,0-.29.14-.59.27-.88.42a26.15,26.15,0,0,1-5.8,2.2,2.7,2.7,0,0,1-1.29.15,13.13,13.13,0,0,0-15.54-2.47C52.45,28.48,50,33.66,50.89,40.13Z"/></svg>