<svg id="Layer_1" data-name="Layer 1" xmlns="http://www.w3.org/2000/svg" viewBox="0 0 100 100"><defs><style>.cls-1{fill:#fff;}</style></defs><title>joc-social-icons</title><circle class="cls-1" cx="50" cy="50" r="10.67"/><path class="cls-1" d="M74.95,31.13a10.6,10.6,0,0,0-6.07-6.07A17.71,17.71,0,0,0,62.93,24c-3.37-.15-4.39-.19-12.93-.19s-9.56,0-12.93.19a17.71,17.71,0,0,0-5.94,1.1,10.6,10.6,0,0,0-6.07,6.07A17.71,17.71,0,0,0,24,37.07c-.15,3.37-.19,4.39-.19,12.93s0,9.56.19,12.93a17.71,17.71,0,0,0,1.1,5.94,10.6,10.6,0,0,0,6.07,6.07A17.71,17.71,0,0,0,37.07,76c3.37.15,4.39.19,12.93.19s9.56,0,12.93-.19a17.71,17.71,0,0,0,5.94-1.1,10.6,10.6,0,0,0,6.07-6.07A17.71,17.71,0,0,0,76,62.93c.15-3.37.19-4.39.19-12.93s0-9.56-.19-12.93A17.71,17.71,0,0,0,74.95,31.13ZM50,66.43A16.43,16.43,0,1,1,66.43,50,16.43,16.43,0,0,1,50,66.43ZM67.08,36.76a3.84,3.84,0,1,1,3.84-3.84A3.84,3.84,0,0,1,67.08,36.76Z"/><path class="cls-1" d="M50.19,0A50,50,0,1,0,100,50.25,50,50,0,0,0,50.19,0ZM81.81,63.19A23.49,23.49,0,0,1,80.32,71,16.36,16.36,0,0,1,71,80.32a23.49,23.49,0,0,1-7.77,1.49C59.78,82,58.69,82,50,82s-9.78,0-13.19-.19A23.49,23.49,0,0,1,29,80.32,16.36,16.36,0,0,1,19.68,71a23.49,23.49,0,0,1-1.49-7.77C18,59.78,18,58.69,18,50s0-9.78.19-13.19A23.49,23.49,0,0,1,19.68,29,16.36,16.36,0,0,1,29,19.68a23.49,23.49,0,0,1,7.77-1.49C40.22,18,41.31,18,50,18s9.78,0,13.19.19A23.49,23.49,0,0,1,71,19.68,16.36,16.36,0,0,1,80.32,29a23.49,23.49,0,0,1,1.49,7.77C82,40.22,82,41.31,82,50S82,59.78,81.81,63.19Z"/></svg>