<svg id="Layer_1" data-name="Layer 1" xmlns="http://www.w3.org/2000/svg" viewBox="0 0 100 100"><defs><style>.cls-1{fill:#fff;}</style></defs><title>joc-social-icons</title><path class="cls-1" d="M49.94,100a50,50,0,1,1,50-49.9A50,50,0,0,1,49.94,100Zm3.79-18.7c0-.42,0-.85,0-1.29q0-10.82,0-21.64c0-1.35,0-2.69,0-4,0-.27.05-.54.09-.87.48,0,.88-.05,1.28-.05H62a1.7,1.7,0,0,0,1.24-.23c.16-1.12.32-2.28.48-3.45s.35-2.42.46-3.64a19,19,0,0,0,.33-3.54c-.47,0-.87,0-1.27,0H54.92c-.35,0-.74.11-1.08-.22a5.6,5.6,0,0,1-.05-.56c0-2.16,0-4.32,0-6.48A10.66,10.66,0,0,1,54,33.65a3.57,3.57,0,0,1,2.94-3.18,13.13,13.13,0,0,1,2.42-.26c1.47,0,2.93,0,4.4,0A2,2,0,0,0,64.91,30c.14-1.06.13-8.54,0-9.56a6.42,6.42,0,0,0-.8-.17A71.59,71.59,0,0,0,56,20a16.93,16.93,0,0,0-2.91.29,12.15,12.15,0,0,0-10,9,17.06,17.06,0,0,0-.68,4.82c0,2.4,0,4.81,0,7.21,0,.35,0,.71-.08,1.12-.47,0-.87.05-1.27.05H34a8.55,8.55,0,0,0-.9.09c-.14,1-.21,7.84-.11,10.09a4.22,4.22,0,0,0,.1.58,2.69,2.69,0,0,0,1.24.14h6.85a1.84,1.84,0,0,1,1.27.24V55q0,12.29,0,24.58c0,.37,0,.73,0,1.1a5,5,0,0,0,.12.66C44.49,81.53,52.73,81.48,53.73,81.3Z"/></svg>