<svg id="Layer_1" data-name="Layer 1" xmlns="http://www.w3.org/2000/svg" viewBox="0 0 551.81 551.92"><defs><style>.cls-1{fill:#fff;}</style></defs><title>spotify</title><path class="cls-1" d="M275.85-1.19c153,0,276.48,123.74,275.8,277.52C551,431.89,422.89,553.18,271.11,550.69,124.2,548.29,0,429-.16,275-.33,121.18,124.23-1.24,275.85-1.19Zm-51.3,145.92c-11.55.87-34.16,2.09-56.65,4.41a333.22,333.22,0,0,0-64.46,13.23,25.64,25.64,0,0,0,14.63,49.15c4.05-1.12,8.08-2.34,12.17-3.35,40.69-10,82-12.91,123.8-11.51a496.41,496.41,0,0,1,82.26,9.43C372.73,213.49,407.66,225,440,243.78c9,5.22,18.33,4.37,26.82-1.58a25.44,25.44,0,0,0-1.52-42.83,298.14,298.14,0,0,0-53.44-25.2C355,153.4,295.91,145.42,224.55,144.73Zm-3,95c-8.79.67-25.75,1.56-42.61,3.36a311.06,311.06,0,0,0-59.75,12.52,21.22,21.22,0,0,0-12.43,30.91c5,8.89,15.12,12.83,25.5,9.74A315.8,315.8,0,0,1,189.8,284.9a379.93,379.93,0,0,1,96.83,2.3c42.27,6.43,82.45,18.92,119.32,41.08,11,6.62,24,3.48,30.21-7.12,6-10.21,2.66-23.07-8.14-29.34-9.43-5.48-19-10.88-28.82-15.5C345.53,251.15,288.71,240.37,221.51,239.73Zm11.42,90.57c-5.79,0-11.59-.21-17.36,0A450.66,450.66,0,0,0,129,342.64a20.71,20.71,0,0,0-9.52,5.77c-5,5.29-5.34,13.36-1.66,19.43,4.14,6.82,11.3,9.58,19.86,7.66,36.74-8.22,73.83-12.76,111.58-11,46,2.17,89.25,13.6,128.91,37.52,8.78,5.3,19,2.88,24.06-5.49s2.43-18.52-6.6-23.75c-8.42-4.87-16.94-9.61-25.71-13.8C326.61,338.31,280.64,329.93,232.93,330.3Z" transform="translate(0.16 1.19)"/></svg>